<?xml version="1.0" encoding="utf-8" standalone="no"?>
<!DOCTYPE svg PUBLIC "-//W3C//DTD SVG 1.1//EN"
  "http://www.w3.org/Graphics/SVG/1.1/DTD/svg11.dtd">
<svg height="345.6pt" version="1.1" viewBox="0 0 460.8 345.6" width="460.8pt" xmlns="http://www.w3.org/2000/svg" xmlns:xlink="http://www.w3.org/1999/xlink">
 <metadata>
  <rdf:RDF xmlns:cc="http://creativecommons.org/ns#" xmlns:dc="http://purl.org/dc/elements/1.1/" xmlns:rdf="http://www.w3.org/1999/02/22-rdf-syntax-ns#">
   <cc:Work>
    <dc:type rdf:resource="http://purl.org/dc/dcmitype/StillImage"/>
    <dc:date>2022-11-19T17:33:56.256921</dc:date>
    <dc:format>image/svg+xml</dc:format>
    <dc:creator>
     <cc:Agent>
      <dc:title>Matplotlib v3.4.3, https://matplotlib.org/</dc:title>
     </cc:Agent>
    </dc:creator>
   </cc:Work>
  </rdf:RDF>
 </metadata>
 <defs>
  <style type="text/css">*{stroke-linecap:butt;stroke-linejoin:round;}</style>
 </defs>
 <g id="figure_1">
  <g id="patch_1">
   <path d="M 0 345.6 
L 460.8 345.6 
L 460.8 0 
L 0 0 
z
" style="fill:#ffffff;"/>
  </g>
  <g id="axes_1">
   <g id="patch_2">
    <path d="M 67.40625 302.655937 
L 450 302.655937 
L 450 10.8 
L 67.40625 10.8 
z
" style="fill:#e5e5e5;"/>
   </g>
   <g id="matplotlib.axis_1">
    <g id="xtick_1">
     <g id="line2d_1">
      <path clip-path="url(#p122d102340)" d="M 84.796875 302.655937 
L 84.796875 10.8 
" style="fill:none;stroke:#ffffff;stroke-linecap:square;stroke-width:0.8;"/>
     </g>
     <g id="line2d_2">
      <defs>
       <path d="M 0 0 
L 0 3.5 
" id="mf714d57346" style="stroke:#555555;stroke-width:0.8;"/>
      </defs>
      <g>
       <use style="fill:#555555;stroke:#555555;stroke-width:0.8;" x="84.796875" xlink:href="#mf714d57346" y="302.655937"/>
      </g>
     </g>
     <g id="text_1">
      <text style="fill:#555555;font-family:Verdana;font-size:10px;font-stretch:normal;font-style:normal;font-weight:normal;text-anchor:middle;" transform="rotate(-0, 84.796875, 317.254375)" x="84.796875" y="317.254375">1</text>
     </g>
    </g>
    <g id="xtick_2">
     <g id="line2d_3">
      <path clip-path="url(#p122d102340)" d="M 134.484375 302.655937 
L 134.484375 10.8 
" style="fill:none;stroke:#ffffff;stroke-linecap:square;stroke-width:0.8;"/>
     </g>
     <g id="line2d_4">
      <g>
       <use style="fill:#555555;stroke:#555555;stroke-width:0.8;" x="134.484375" xlink:href="#mf714d57346" y="302.655937"/>
      </g>
     </g>
     <g id="text_2">
      <text style="fill:#555555;font-family:Verdana;font-size:10px;font-stretch:normal;font-style:normal;font-weight:normal;text-anchor:middle;" transform="rotate(-0, 134.484375, 317.254375)" x="134.484375" y="317.254375">4</text>
     </g>
    </g>
    <g id="xtick_3">
     <g id="line2d_5">
      <path clip-path="url(#p122d102340)" d="M 184.171875 302.655937 
L 184.171875 10.8 
" style="fill:none;stroke:#ffffff;stroke-linecap:square;stroke-width:0.8;"/>
     </g>
     <g id="line2d_6">
      <g>
       <use style="fill:#555555;stroke:#555555;stroke-width:0.8;" x="184.171875" xlink:href="#mf714d57346" y="302.655937"/>
      </g>
     </g>
     <g id="text_3">
      <text style="fill:#555555;font-family:Verdana;font-size:10px;font-stretch:normal;font-style:normal;font-weight:normal;text-anchor:middle;" transform="rotate(-0, 184.171875, 317.254375)" x="184.171875" y="317.254375">16</text>
     </g>
    </g>
    <g id="xtick_4">
     <g id="line2d_7">
      <path clip-path="url(#p122d102340)" d="M 233.859375 302.655937 
L 233.859375 10.8 
" style="fill:none;stroke:#ffffff;stroke-linecap:square;stroke-width:0.8;"/>
     </g>
     <g id="line2d_8">
      <g>
       <use style="fill:#555555;stroke:#555555;stroke-width:0.8;" x="233.859375" xlink:href="#mf714d57346" y="302.655937"/>
      </g>
     </g>
     <g id="text_4">
      <text style="fill:#555555;font-family:Verdana;font-size:10px;font-stretch:normal;font-style:normal;font-weight:normal;text-anchor:middle;" transform="rotate(-0, 233.859375, 317.254375)" x="233.859375" y="317.254375">64</text>
     </g>
    </g>
    <g id="xtick_5">
     <g id="line2d_9">
      <path clip-path="url(#p122d102340)" d="M 283.546875 302.655937 
L 283.546875 10.8 
" style="fill:none;stroke:#ffffff;stroke-linecap:square;stroke-width:0.8;"/>
     </g>
     <g id="line2d_10">
      <g>
       <use style="fill:#555555;stroke:#555555;stroke-width:0.8;" x="283.546875" xlink:href="#mf714d57346" y="302.655937"/>
      </g>
     </g>
     <g id="text_5">
      <text style="fill:#555555;font-family:Verdana;font-size:10px;font-stretch:normal;font-style:normal;font-weight:normal;text-anchor:middle;" transform="rotate(-0, 283.546875, 317.254375)" x="283.546875" y="317.254375">256</text>
     </g>
    </g>
    <g id="xtick_6">
     <g id="line2d_11">
      <path clip-path="url(#p122d102340)" d="M 333.234375 302.655937 
L 333.234375 10.8 
" style="fill:none;stroke:#ffffff;stroke-linecap:square;stroke-width:0.8;"/>
     </g>
     <g id="line2d_12">
      <g>
       <use style="fill:#555555;stroke:#555555;stroke-width:0.8;" x="333.234375" xlink:href="#mf714d57346" y="302.655937"/>
      </g>
     </g>
     <g id="text_6">
      <text style="fill:#555555;font-family:Verdana;font-size:10px;font-stretch:normal;font-style:normal;font-weight:normal;text-anchor:middle;" transform="rotate(-0, 333.234375, 317.254375)" x="333.234375" y="317.254375">1024</text>
     </g>
    </g>
    <g id="xtick_7">
     <g id="line2d_13">
      <path clip-path="url(#p122d102340)" d="M 382.921875 302.655937 
L 382.921875 10.8 
" style="fill:none;stroke:#ffffff;stroke-linecap:square;stroke-width:0.8;"/>
     </g>
     <g id="line2d_14">
      <g>
       <use style="fill:#555555;stroke:#555555;stroke-width:0.8;" x="382.921875" xlink:href="#mf714d57346" y="302.655937"/>
      </g>
     </g>
     <g id="text_7">
      <text style="fill:#555555;font-family:Verdana;font-size:10px;font-stretch:normal;font-style:normal;font-weight:normal;text-anchor:middle;" transform="rotate(-0, 382.921875, 317.254375)" x="382.921875" y="317.254375">4096</text>
     </g>
    </g>
    <g id="xtick_8">
     <g id="line2d_15">
      <path clip-path="url(#p122d102340)" d="M 432.609375 302.655937 
L 432.609375 10.8 
" style="fill:none;stroke:#ffffff;stroke-linecap:square;stroke-width:0.8;"/>
     </g>
     <g id="line2d_16">
      <g>
       <use style="fill:#555555;stroke:#555555;stroke-width:0.8;" x="432.609375" xlink:href="#mf714d57346" y="302.655937"/>
      </g>
     </g>
     <g id="text_8">
      <text style="fill:#555555;font-family:Verdana;font-size:10px;font-stretch:normal;font-style:normal;font-weight:normal;text-anchor:middle;" transform="rotate(-0, 432.609375, 317.254375)" x="432.609375" y="317.254375">16384</text>
     </g>
    </g>
    <g id="text_9">
     <text style="fill:#555555;font-family:Verdana;font-size:12px;font-stretch:normal;font-style:normal;font-weight:normal;text-anchor:middle;" transform="rotate(-0, 258.703125, 332.385)" x="258.703125" y="332.385">n° de palavras</text>
    </g>
   </g>
   <g id="matplotlib.axis_2">
    <g id="ytick_1">
     <g id="line2d_17">
      <path clip-path="url(#p122d102340)" d="M 67.40625 264.835648 
L 450 264.835648 
" style="fill:none;stroke:#ffffff;stroke-linecap:square;stroke-width:0.8;"/>
     </g>
     <g id="line2d_18">
      <defs>
       <path d="M 0 0 
L -3.5 0 
" id="m8f8b48aca1" style="stroke:#555555;stroke-width:0.8;"/>
      </defs>
      <g>
       <use style="fill:#555555;stroke:#555555;stroke-width:0.8;" x="67.40625" xlink:href="#m8f8b48aca1" y="264.835648"/>
      </g>
     </g>
     <g id="text_10">
      <text style="fill:#555555;font-family:Verdana;font-size:10px;font-stretch:normal;font-style:normal;font-weight:normal;text-anchor:end;" transform="rotate(-0, 60.40625, 268.634867)" x="60.40625" y="268.634867">100ns</text>
     </g>
    </g>
    <g id="ytick_2">
     <g id="line2d_19">
      <path clip-path="url(#p122d102340)" d="M 67.40625 203.931438 
L 450 203.931438 
" style="fill:none;stroke:#ffffff;stroke-linecap:square;stroke-width:0.8;"/>
     </g>
     <g id="line2d_20">
      <g>
       <use style="fill:#555555;stroke:#555555;stroke-width:0.8;" x="67.40625" xlink:href="#m8f8b48aca1" y="203.931438"/>
      </g>
     </g>
     <g id="text_11">
      <text style="fill:#555555;font-family:Verdana;font-size:10px;font-stretch:normal;font-style:normal;font-weight:normal;text-anchor:end;" transform="rotate(-0, 60.40625, 207.730656)" x="60.40625" y="207.730656">10us</text>
     </g>
    </g>
    <g id="ytick_3">
     <g id="line2d_21">
      <path clip-path="url(#p122d102340)" d="M 67.40625 143.027227 
L 450 143.027227 
" style="fill:none;stroke:#ffffff;stroke-linecap:square;stroke-width:0.8;"/>
     </g>
     <g id="line2d_22">
      <g>
       <use style="fill:#555555;stroke:#555555;stroke-width:0.8;" x="67.40625" xlink:href="#m8f8b48aca1" y="143.027227"/>
      </g>
     </g>
     <g id="text_12">
      <text style="fill:#555555;font-family:Verdana;font-size:10px;font-stretch:normal;font-style:normal;font-weight:normal;text-anchor:end;" transform="rotate(-0, 60.40625, 146.826446)" x="60.40625" y="146.826446">1ms</text>
     </g>
    </g>
    <g id="ytick_4">
     <g id="line2d_23">
      <path clip-path="url(#p122d102340)" d="M 67.40625 82.123016 
L 450 82.123016 
" style="fill:none;stroke:#ffffff;stroke-linecap:square;stroke-width:0.8;"/>
     </g>
     <g id="line2d_24">
      <g>
       <use style="fill:#555555;stroke:#555555;stroke-width:0.8;" x="67.40625" xlink:href="#m8f8b48aca1" y="82.123016"/>
      </g>
     </g>
     <g id="text_13">
      <text style="fill:#555555;font-family:Verdana;font-size:10px;font-stretch:normal;font-style:normal;font-weight:normal;text-anchor:end;" transform="rotate(-0, 60.40625, 85.922235)" x="60.40625" y="85.922235">100ms</text>
     </g>
    </g>
    <g id="ytick_5">
     <g id="line2d_25">
      <path clip-path="url(#p122d102340)" d="M 67.40625 21.218805 
L 450 21.218805 
" style="fill:none;stroke:#ffffff;stroke-linecap:square;stroke-width:0.8;"/>
     </g>
     <g id="line2d_26">
      <g>
       <use style="fill:#555555;stroke:#555555;stroke-width:0.8;" x="67.40625" xlink:href="#m8f8b48aca1" y="21.218805"/>
      </g>
     </g>
     <g id="text_14">
      <text style="fill:#555555;font-family:Verdana;font-size:10px;font-stretch:normal;font-style:normal;font-weight:normal;text-anchor:end;" transform="rotate(-0, 60.40625, 25.018024)" x="60.40625" y="25.018024">10s</text>
     </g>
    </g>
    <g id="text_15">
     <text style="fill:#555555;font-family:Verdana;font-size:12px;font-stretch:normal;font-style:normal;font-weight:normal;text-anchor:middle;" transform="rotate(-90, 19.918125, 156.727969)" x="19.918125" y="156.727969">microsegundos</text>
    </g>
   </g>
   <g id="line2d_27">
    <path clip-path="url(#p122d102340)" d="M 84.796875 289.364382 
L 109.640625 289.389759 
L 134.484375 261.895119 
L 159.328125 240.658808 
L 184.171875 219.783849 
L 209.015625 198.657551 
L 233.859375 179.200953 
L 258.703125 160.343397 
L 283.546875 141.34084 
L 308.390625 123.339887 
L 333.234375 102.825993 
L 358.078125 83.099852 
L 382.921875 63.742815 
L 407.765625 43.42817 
L 432.609375 24.066179 
" style="fill:none;stroke:#e24a33;stroke-linecap:square;stroke-width:1.5;"/>
   </g>
   <g id="line2d_28">
    <path clip-path="url(#p122d102340)" d="M 84.796875 289.381294 
L 109.640625 274.854768 
L 134.484375 280.218529 
L 159.328125 239.338932 
L 184.171875 220.780817 
L 209.015625 201.787386 
L 233.859375 183.746192 
L 258.703125 165.172924 
L 283.546875 146.396517 
L 308.390625 128.008884 
L 333.234375 109.455799 
L 358.078125 90.707882 
L 382.921875 70.500773 
L 407.765625 51.190414 
L 432.609375 34.896685 
" style="fill:none;stroke:#348abd;stroke-linecap:square;stroke-width:1.5;"/>
   </g>
   <g id="line2d_29">
    <path clip-path="url(#p122d102340)" d="M 84.796875 289.389759 
L 109.640625 280.218529 
L 134.484375 263.647489 
L 159.328125 242.747524 
L 184.171875 222.019107 
L 209.015625 204.22564 
L 233.859375 185.663735 
L 258.703125 168.501645 
L 283.546875 150.318275 
L 308.390625 132.738726 
L 333.234375 115.657483 
L 358.078125 97.710612 
L 382.921875 78.592302 
L 407.765625 61.375031 
L 432.609375 44.629938 
" style="fill:none;stroke:#988ed5;stroke-linecap:square;stroke-width:1.5;"/>
   </g>
   <g id="line2d_30">
    <path clip-path="url(#p122d102340)" d="M 84.796875 280.222761 
L 109.640625 280.218529 
L 134.484375 258.929189 
L 159.328125 245.316517 
L 184.171875 229.877078 
L 209.015625 213.140823 
L 233.859375 196.106521 
L 258.703125 179.466556 
L 283.546875 163.027817 
L 308.390625 145.685689 
L 333.234375 128.366285 
L 358.078125 110.043207 
L 382.921875 94.410832 
L 407.765625 76.140623 
L 432.609375 58.448733 
" style="fill:none;stroke:#777777;stroke-linecap:square;stroke-width:1.5;"/>
   </g>
   <g id="line2d_31">
    <path clip-path="url(#p122d102340)" d="M 84.796875 271.049416 
L 109.640625 274.85759 
L 134.484375 254.486537 
L 159.328125 236.387433 
L 184.171875 221.941448 
L 209.015625 209.931146 
L 233.859375 196.867188 
L 258.703125 186.990855 
L 283.546875 176.918764 
L 308.390625 166.539702 
L 333.234375 156.205019 
L 358.078125 145.833658 
L 382.921875 135.824169 
L 407.765625 125.631679 
L 432.609375 115.840737 
" style="fill:none;stroke:#fbc15e;stroke-linecap:square;stroke-width:1.5;"/>
   </g>
   <g id="line2d_32">
    <path clip-path="url(#p122d102340)" d="M 84.796875 280.243945 
L 109.640625 251.162187 
L 134.484375 237.129611 
L 159.328125 224.514729 
L 184.171875 212.245728 
L 209.015625 203.185797 
L 233.859375 192.967916 
L 258.703125 182.449425 
L 283.546875 172.111072 
L 308.390625 162.218988 
L 333.234375 152.811475 
L 358.078125 142.521248 
L 382.921875 133.158413 
L 407.765625 123.514143 
L 432.609375 113.420194 
" style="fill:none;stroke:#8eba42;stroke-linecap:square;stroke-width:1.5;"/>
   </g>
   <g id="line2d_33">
    <path clip-path="url(#p122d102340)" d="M 84.796875 280.210067 
L 109.640625 265.689182 
L 134.484375 251.157484 
L 159.328125 238.466175 
L 184.171875 222.684632 
L 209.015625 209.949895 
L 233.859375 197.991176 
L 258.703125 186.924894 
L 283.546875 175.350012 
L 308.390625 165.69106 
L 333.234375 155.38556 
L 358.078125 144.951336 
L 382.921875 133.953132 
L 407.765625 122.841981 
L 432.609375 113.807872 
" style="fill:none;stroke:#ffb5b8;stroke-linecap:square;stroke-width:1.5;"/>
   </g>
   <g id="patch_3">
    <path d="M 67.40625 302.655937 
L 67.40625 10.8 
" style="fill:none;stroke:#ffffff;stroke-linecap:square;stroke-linejoin:miter;"/>
   </g>
   <g id="patch_4">
    <path d="M 450 302.655937 
L 450 10.8 
" style="fill:none;stroke:#ffffff;stroke-linecap:square;stroke-linejoin:miter;"/>
   </g>
   <g id="patch_5">
    <path d="M 67.40625 302.655937 
L 450 302.655937 
" style="fill:none;stroke:#ffffff;stroke-linecap:square;stroke-linejoin:miter;"/>
   </g>
   <g id="patch_6">
    <path d="M 67.40625 10.8 
L 450 10.8 
" style="fill:none;stroke:#ffffff;stroke-linecap:square;stroke-linejoin:miter;"/>
   </g>
   <g id="legend_1">
    <g id="patch_7">
     <path d="M 74.40625 121.129687 
L 156.734375 121.129687 
Q 158.734375 121.129687 158.734375 119.129687 
L 158.734375 17.8 
Q 158.734375 15.8 156.734375 15.8 
L 74.40625 15.8 
Q 72.40625 15.8 72.40625 17.8 
L 72.40625 119.129687 
Q 72.40625 121.129687 74.40625 121.129687 
z
" style="fill:#e5e5e5;opacity:0.8;stroke:#cccccc;stroke-linejoin:miter;stroke-width:0.5;"/>
    </g>
    <g id="line2d_34">
     <path d="M 76.40625 23.898438 
L 96.40625 23.898438 
" style="fill:none;stroke:#e24a33;stroke-linecap:square;stroke-width:1.5;"/>
    </g>
    <g id="line2d_35"/>
    <g id="text_16">
     <text style="font-family:Verdana;font-size:10px;font-stretch:normal;font-style:normal;font-weight:normal;text-anchor:start;" transform="rotate(-0, 104.40625, 27.398438)" x="104.40625" y="27.398438">Bubble1</text>
    </g>
    <g id="line2d_36">
     <path d="M 76.40625 38.509375 
L 96.40625 38.509375 
" style="fill:none;stroke:#348abd;stroke-linecap:square;stroke-width:1.5;"/>
    </g>
    <g id="line2d_37"/>
    <g id="text_17">
     <text style="font-family:Verdana;font-size:10px;font-stretch:normal;font-style:normal;font-weight:normal;text-anchor:start;" transform="rotate(-0, 104.40625, 42.009375)" x="104.40625" y="42.009375">Bubble2</text>
    </g>
    <g id="line2d_38">
     <path d="M 76.40625 53.120313 
L 96.40625 53.120313 
" style="fill:none;stroke:#988ed5;stroke-linecap:square;stroke-width:1.5;"/>
    </g>
    <g id="line2d_39"/>
    <g id="text_18">
     <text style="font-family:Verdana;font-size:10px;font-stretch:normal;font-style:normal;font-weight:normal;text-anchor:start;" transform="rotate(-0, 104.40625, 56.620313)" x="104.40625" y="56.620313">Selection</text>
    </g>
    <g id="line2d_40">
     <path d="M 76.40625 67.73125 
L 96.40625 67.73125 
" style="fill:none;stroke:#777777;stroke-linecap:square;stroke-width:1.5;"/>
    </g>
    <g id="line2d_41"/>
    <g id="text_19">
     <text style="font-family:Verdana;font-size:10px;font-stretch:normal;font-style:normal;font-weight:normal;text-anchor:start;" transform="rotate(-0, 104.40625, 71.23125)" x="104.40625" y="71.23125">Insertion</text>
    </g>
    <g id="line2d_42">
     <path d="M 76.40625 82.342187 
L 96.40625 82.342187 
" style="fill:none;stroke:#fbc15e;stroke-linecap:square;stroke-width:1.5;"/>
    </g>
    <g id="line2d_43"/>
    <g id="text_20">
     <text style="font-family:Verdana;font-size:10px;font-stretch:normal;font-style:normal;font-weight:normal;text-anchor:start;" transform="rotate(-0, 104.40625, 85.842187)" x="104.40625" y="85.842187">Quicksort</text>
    </g>
    <g id="line2d_44">
     <path d="M 76.40625 96.953125 
L 96.40625 96.953125 
" style="fill:none;stroke:#8eba42;stroke-linecap:square;stroke-width:1.5;"/>
    </g>
    <g id="line2d_45"/>
    <g id="text_21">
     <text style="font-family:Verdana;font-size:10px;font-stretch:normal;font-style:normal;font-weight:normal;text-anchor:start;" transform="rotate(-0, 104.40625, 100.453125)" x="104.40625" y="100.453125">Mergesort</text>
    </g>
    <g id="line2d_46">
     <path d="M 76.40625 111.617188 
L 96.40625 111.617188 
" style="fill:none;stroke:#ffb5b8;stroke-linecap:square;stroke-width:1.5;"/>
    </g>
    <g id="line2d_47"/>
    <g id="text_22">
     <text style="font-family:Verdana;font-size:10px;font-stretch:normal;font-style:normal;font-weight:normal;text-anchor:start;" transform="rotate(-0, 104.40625, 115.117188)" x="104.40625" y="115.117188">HeapSort</text>
    </g>
   </g>
  </g>
 </g>
 <defs>
  <clipPath id="p122d102340">
   <rect height="291.855937" width="382.59375" x="67.40625" y="10.8"/>
  </clipPath>
 </defs>
</svg>
